<svg width="117" height="36" viewBox="0 0 117 36" fill="none" xmlns="http://www.w3.org/2000/svg">
<path d="M48.008 7.92C48.104 7.984 48.152 8.08 48.152 8.208C48.152 8.304 48.056 8.448 47.864 8.64C46.808 9.792 45.864 11.12 45.032 12.624C44.2 14.096 43.496 15.712 42.92 17.472C42.344 19.232 41.896 21.088 41.576 23.04C41.256 24.992 41.096 26.992 41.096 29.04C41.096 30.576 41.272 31.776 41.624 32.64C42.008 33.472 42.664 33.888 43.592 33.888C44.872 33.888 46.088 32.992 47.24 31.2C47.336 31.136 47.432 31.136 47.528 31.2C47.624 31.264 47.656 31.36 47.624 31.488C46.792 32.832 45.864 33.92 44.84 34.752C43.848 35.584 42.92 36 42.056 36C40.776 36 39.8 35.504 39.128 34.512C38.488 33.52 38.168 32.112 38.168 30.288C38.168 27.728 38.456 25.12 39.032 22.464C37.528 22.464 36.04 22.48 34.568 22.512C33.128 22.544 31.72 22.592 30.344 22.656C29.288 23.776 28.264 24.832 27.272 25.824C26.312 26.816 25.368 27.728 24.44 28.56C21.88 30.896 19.24 32.72 16.52 34.032C13.832 35.344 10.872 36 7.64 36C5.912 36 4.52 35.616 3.464 34.848C2.44 34.08 1.752 33.104 1.4 31.92C1.08 30.736 1.096 29.44 1.448 28.032C1.8 26.624 2.504 25.264 3.56 23.952C3.656 23.888 3.768 23.904 3.896 24C4.024 24.064 4.072 24.208 4.04 24.432C3.304 25.232 2.888 26.16 2.792 27.216C2.728 28.24 2.952 29.216 3.464 30.144C4.008 31.04 4.84 31.808 5.96 32.448C7.08 33.056 8.488 33.36 10.184 33.36C12.904 33.36 15.448 32.8 17.816 31.68C20.216 30.56 22.472 29.04 24.584 27.12C25.32 26.48 26.056 25.792 26.792 25.056C27.528 24.32 28.296 23.552 29.096 22.752C27.976 22.816 26.92 22.896 25.928 22.992C24.936 23.056 24.008 23.152 23.144 23.28C22.984 23.248 22.952 23.168 23.048 23.04C23.144 22.912 23.288 22.784 23.48 22.656C23.672 22.496 23.896 22.368 24.152 22.272C24.44 22.144 24.712 22.064 24.968 22.032C25.384 22 26.024 21.984 26.888 21.984C27.784 21.952 28.792 21.92 29.912 21.888C31.704 20.032 33.688 18.032 35.864 15.888C38.072 13.712 40.68 11.44 43.688 9.072C41.544 8.368 39.32 7.792 37.016 7.344C34.744 6.864 32.552 6.624 30.44 6.624C28.04 6.624 26.072 7.296 24.536 8.64C23 9.952 22.056 12.032 21.704 14.88C21.64 15.04 21.544 15.104 21.416 15.072C21.32 15.04 21.256 14.944 21.224 14.784C21.608 11.648 22.776 9.248 24.728 7.584C26.68 5.92 29.208 5.088 32.312 5.088C33.624 5.088 35 5.184 36.44 5.376C37.88 5.536 39.288 5.76 40.664 6.048C42.072 6.304 43.4 6.608 44.648 6.96C45.928 7.28 47.048 7.6 48.008 7.92ZM39.176 21.84C39.688 19.536 40.408 17.296 41.336 15.12C42.264 12.944 43.4 10.944 44.744 9.12C41.928 11.392 39.416 13.6 37.208 15.744C35 17.888 32.968 19.936 31.112 21.888C32.648 21.856 34.152 21.84 35.624 21.84C37.128 21.84 38.312 21.84 39.176 21.84ZM51.2551 36C49.9111 36 49.2391 35.264 49.2391 33.792C49.2391 33.28 49.2871 32.688 49.3831 32.016C49.5111 31.344 49.6871 30.656 49.9111 29.952C50.1671 29.216 50.4551 28.48 50.7751 27.744C51.0951 27.008 51.4791 26.304 51.9271 25.632C51.5751 25.856 51.2391 26.096 50.9191 26.352C50.5991 26.576 50.3111 26.816 50.0551 27.072C49.9591 27.136 49.8631 27.12 49.7671 27.024C49.7031 26.896 49.7031 26.784 49.7671 26.688C50.3111 26.112 51.0791 25.52 52.0711 24.912C53.0951 24.304 54.0711 23.824 54.9991 23.472C55.1591 23.472 55.2711 23.52 55.3351 23.616C55.4311 23.68 55.4471 23.776 55.3831 23.904C54.3591 25.248 53.5271 26.704 52.8871 28.272C52.2791 29.84 51.9751 31.36 51.9751 32.832C51.9751 33.76 52.2631 34.224 52.8391 34.224C53.2551 34.224 53.7671 33.952 54.3751 33.408C54.9831 32.832 55.6231 32.096 56.2951 31.2C56.9671 30.272 57.6391 29.232 58.3111 28.08C59.0151 26.928 59.6551 25.76 60.2311 24.576C60.3271 24.384 60.5991 24.192 61.0471 24C61.5271 23.808 62.0071 23.712 62.4871 23.712C62.9671 23.712 63.1111 23.84 62.9191 24.096C62.4711 24.928 62.0711 25.712 61.7191 26.448C61.3991 27.152 61.1271 27.856 60.9031 28.56C60.6791 29.264 60.5031 29.984 60.3751 30.72C60.2791 31.424 60.2311 32.208 60.2311 33.072C60.2311 34.096 60.5031 34.608 61.0471 34.608C61.5911 34.608 62.1991 34.128 62.8711 33.168C62.9671 33.104 63.0631 33.104 63.1591 33.168C63.2551 33.232 63.2871 33.328 63.2551 33.456C62.7111 34.288 62.1031 34.928 61.4311 35.376C60.7911 35.792 60.1991 36 59.6551 36C58.3111 36 57.6391 35.216 57.6391 33.648C57.6391 32.016 57.9271 30.4 58.5031 28.8C57.2871 31.008 56.0071 32.768 54.6631 34.08C53.3191 35.36 52.1831 36 51.2551 36ZM107.187 0.335999C107.667 0.335999 108.051 0.463999 108.339 0.719999C108.659 0.943998 108.867 1.264 108.963 1.68C109.091 2.064 109.107 2.512 109.011 3.024C108.947 3.536 108.771 4.048 108.483 4.56C108.419 4.624 108.339 4.624 108.243 4.56C108.147 4.496 108.083 4.416 108.051 4.32C108.115 3.936 107.971 3.616 107.619 3.36C107.299 3.104 106.787 2.976 106.083 2.976C104.771 2.976 103.443 3.472 102.099 4.464C100.787 5.424 99.5071 6.704 98.2591 8.304C97.0111 9.904 95.8431 11.744 94.7551 13.824C93.6671 15.904 92.7231 18.048 91.9231 20.256C91.1231 22.464 90.4831 24.656 90.0031 26.832C89.5551 29.008 89.3311 30.992 89.3311 32.784C89.3311 33.744 89.6031 34.224 90.1471 34.224C90.5311 34.224 90.8991 34.064 91.2511 33.744C91.6351 33.424 92.0671 32.944 92.5471 32.304C92.6431 32.24 92.7231 32.256 92.7871 32.352C92.8831 32.416 92.9151 32.512 92.8831 32.64C92.2431 33.6 91.4911 34.4 90.6271 35.04C89.7631 35.68 88.9791 36 88.2751 36C87.6671 36 87.2351 35.824 86.9791 35.472C86.7551 35.12 86.6431 34.672 86.6431 34.128C86.6431 32.624 86.9631 30.752 87.6031 28.512C88.2431 26.24 89.0911 23.856 90.1471 21.36C91.2351 18.832 92.4831 16.32 93.8911 13.824C95.2991 11.328 96.7551 9.088 98.2591 7.104C99.7951 5.088 101.331 3.456 102.867 2.208C104.403 0.959998 105.843 0.335999 107.187 0.335999ZM100.054 21.648C99.9579 21.744 99.8459 21.744 99.7179 21.648C99.6219 21.552 99.5419 21.424 99.4779 21.264C99.4139 21.072 99.3819 20.88 99.3819 20.688C99.3819 20.464 99.4299 20.272 99.5259 20.112C99.8779 19.664 100.39 19.104 101.062 18.432C101.766 17.728 102.486 17.136 103.222 16.656C103.286 16.624 103.366 16.656 103.462 16.752C103.558 16.816 103.59 16.88 103.558 16.944C102.886 17.552 102.246 18.288 101.638 19.152C101.03 19.984 100.502 20.816 100.054 21.648ZM94.9179 27.072C94.8219 27.136 94.7419 27.12 94.6779 27.024C94.6139 26.896 94.5979 26.784 94.6299 26.688C95.8139 25.728 97.4619 24.736 99.5739 23.712C99.8299 23.712 99.9579 23.856 99.9579 24.144C99.5419 24.88 99.1259 25.68 98.7099 26.544C98.3259 27.408 97.9739 28.272 97.6539 29.136C97.3659 29.968 97.1259 30.784 96.9339 31.584C96.7419 32.352 96.6459 32.992 96.6459 33.504C96.6459 34.144 96.8699 34.464 97.3179 34.464C97.6699 34.464 98.0059 34.32 98.3259 34.032C98.6779 33.712 99.0779 33.312 99.5259 32.832C99.5899 32.768 99.6699 32.784 99.7659 32.88C99.8619 32.944 99.8779 33.056 99.8139 33.216C99.1099 34.048 98.4059 34.72 97.7019 35.232C97.0299 35.744 96.3739 36 95.7339 36C94.6139 36 94.0539 35.472 94.0539 34.416C94.0539 33.84 94.1339 33.168 94.2939 32.4C94.4859 31.6 94.7259 30.8 95.0139 30C95.3339 29.168 95.6699 28.368 96.0219 27.6C96.4059 26.8 96.7899 26.112 97.1739 25.536C96.8219 25.728 96.4219 25.968 95.9739 26.256C95.5579 26.544 95.2059 26.816 94.9179 27.072ZM114.983 32.976C115.047 32.912 115.127 32.912 115.223 32.976C115.319 33.04 115.351 33.136 115.319 33.264C114.743 34.096 114.103 34.768 113.399 35.28C112.695 35.76 112.023 36 111.383 36C110.647 36 110.167 35.488 109.943 34.464C109.751 33.408 109.863 32.16 110.279 30.72C109.415 32.096 108.471 33.28 107.447 34.272C106.455 35.232 105.399 35.808 104.279 36C103.511 36 102.919 35.648 102.503 34.944C102.087 34.24 101.879 33.424 101.879 32.496C101.879 31.44 102.135 30.4 102.647 29.376C103.159 28.32 103.831 27.376 104.663 26.544C105.527 25.712 106.471 25.04 107.495 24.528C108.551 23.984 109.607 23.712 110.663 23.712C111.783 23.712 112.663 23.984 113.303 24.528C113.623 24.304 114.023 24.112 114.503 23.952C115.015 23.792 115.463 23.712 115.847 23.712C115.975 23.712 116.039 23.792 116.039 23.952C115.303 24.848 114.663 25.84 114.119 26.928C113.607 27.984 113.207 29.008 112.919 30C112.631 30.96 112.455 31.824 112.391 32.592C112.327 33.36 112.391 33.888 112.583 34.176C112.743 34.368 113.015 34.432 113.399 34.368C113.783 34.272 114.311 33.808 114.983 32.976ZM105.767 34.224C106.151 34.224 106.615 33.984 107.159 33.504C107.735 33.024 108.327 32.384 108.935 31.584C109.543 30.784 110.135 29.888 110.711 28.896C111.319 27.904 111.847 26.896 112.295 25.872C112.167 25.456 111.863 25.12 111.383 24.864C110.935 24.608 110.407 24.48 109.799 24.48C109.063 24.48 108.375 24.672 107.735 25.056C107.095 25.408 106.535 25.92 106.055 26.592C105.607 27.232 105.239 28.016 104.951 28.944C104.695 29.84 104.567 30.832 104.567 31.92C104.567 32.624 104.679 33.184 104.903 33.6C105.159 34.016 105.447 34.224 105.767 34.224Z" fill="white"/>
<path d="M70.1686 25.104C70.1686 25.584 70.1206 26.128 70.0246 26.736C69.9286 27.344 69.8006 27.968 69.6406 28.608C70.2806 27.072 70.9846 25.872 71.7526 25.008C72.5206 24.144 73.3526 23.712 74.2486 23.712C74.7286 23.712 75.0966 23.824 75.3526 24.048C75.6086 24.272 75.7366 24.56 75.7366 24.912C75.7366 25.232 75.6086 25.648 75.3526 26.16C75.1286 26.672 74.9366 27.024 74.7766 27.216C74.7126 27.248 74.6486 27.248 74.5846 27.216C74.5206 27.152 74.4886 27.088 74.4886 27.024C74.4886 26.8 74.3926 26.608 74.2006 26.448C74.0406 26.288 73.7846 26.208 73.4326 26.208C72.3126 26.208 71.2886 26.976 70.3606 28.512C69.4646 30.016 68.6326 32.192 67.8646 35.04C67.8326 35.2 67.7206 35.344 67.5286 35.472C67.3366 35.568 67.1126 35.664 66.8566 35.76C66.6326 35.824 66.3926 35.888 66.1366 35.952C65.8806 35.984 65.6566 36 65.4646 36C65.1126 36 65.0166 35.808 65.1766 35.424C65.4646 34.752 65.7366 34.032 65.9926 33.264C66.2806 32.464 66.5366 31.664 66.7606 30.864C66.9846 30.064 67.1766 29.296 67.3366 28.56C67.4966 27.792 67.6246 27.088 67.7206 26.448C67.7846 25.968 67.8006 25.6 67.7686 25.344C67.7686 25.088 67.6406 24.96 67.3846 24.96C67.0646 24.96 66.7286 25.104 66.3766 25.392C66.0566 25.648 65.7526 25.984 65.4646 26.4C65.3366 26.496 65.2086 26.512 65.0806 26.448C64.9846 26.352 64.9686 26.24 65.0326 26.112C65.2246 25.856 65.4486 25.6 65.7046 25.344C65.9926 25.056 66.2966 24.8 66.6166 24.576C66.9686 24.32 67.3206 24.112 67.6726 23.952C68.0566 23.792 68.4406 23.712 68.8246 23.712C69.3366 23.712 69.6886 23.84 69.8806 24.096C70.0726 24.32 70.1686 24.656 70.1686 25.104ZM85.1885 26.112C85.1885 27.936 82.7725 29.184 77.9405 29.856C77.9085 30.176 77.8765 30.496 77.8445 30.816C77.8445 31.136 77.8445 31.472 77.8445 31.824C77.8445 32.656 78.0365 33.296 78.4205 33.744C78.8045 34.192 79.4125 34.416 80.2445 34.416C80.8525 34.416 81.4765 34.24 82.1165 33.888C82.7565 33.536 83.2685 33.088 83.6525 32.544C83.7805 32.48 83.8765 32.512 83.9405 32.64C84.0045 32.736 84.0205 32.848 83.9885 32.976C83.3485 33.808 82.5325 34.528 81.5405 35.136C80.5805 35.712 79.5405 36 78.4205 36C77.3005 36 76.4845 35.728 75.9725 35.184C75.4925 34.608 75.2525 33.808 75.2525 32.784C75.2525 31.792 75.4605 30.768 75.8765 29.712C76.2925 28.624 76.8205 27.632 77.4605 26.736C78.1325 25.84 78.8845 25.12 79.7165 24.576C80.5805 24 81.4445 23.712 82.3085 23.712C83.1725 23.712 83.8605 23.968 84.3725 24.48C84.9165 24.96 85.1885 25.504 85.1885 26.112ZM81.0125 24.96C80.2765 24.96 79.6365 25.312 79.0925 26.016C78.5805 26.688 78.2285 27.744 78.0365 29.184C79.5725 29.024 80.7085 28.736 81.4445 28.32C82.1805 27.872 82.5485 27.328 82.5485 26.688C82.5485 26.208 82.4045 25.808 82.1165 25.488C81.8285 25.136 81.4605 24.96 81.0125 24.96Z" fill="#C3D7BE"/>
</svg>
