<svg width="20" height="19" viewBox="0 0 20 19" fill="none" xmlns="http://www.w3.org/2000/svg">
<path d="M10 19C9.89448 19.0001 9.78997 18.9784 9.69248 18.9363C9.595 18.8941 9.50646 18.8322 9.43195 18.7541L1.76201 10.7428C-0.587337 8.28891 -0.587337 4.29586 1.76201 1.84195C4.01816 -0.516284 7.63458 -0.611117 10 1.56333C12.3638 -0.608599 15.9802 -0.517123 18.238 1.84195C20.5873 4.29586 20.5873 8.28975 18.238 10.7428L10.5681 18.7541C10.4935 18.8322 10.405 18.8941 10.3075 18.9363C10.21 18.9784 10.1055 19.0001 10 19ZM6.02362 1.6783C5.44325 1.67724 4.86839 1.7959 4.33203 2.02748C3.79567 2.25906 3.30838 2.599 2.89812 3.02778C2.07041 3.89394 1.60553 5.06775 1.60553 6.29155C1.60553 7.51535 2.07041 8.68915 2.89812 9.55531L10 16.9733L17.1019 9.55531C17.9296 8.68915 18.3945 7.51535 18.3945 6.29155C18.3945 5.06775 17.9296 3.89394 17.1019 3.02778C16.2726 2.16323 15.1488 1.67767 13.9772 1.67767C12.8055 1.67767 11.6817 2.16323 10.8525 3.02778L10.5681 3.32487C10.4935 3.40287 10.405 3.46476 10.3075 3.50698C10.21 3.5492 10.1055 3.57093 10 3.57093C9.89448 3.57093 9.78999 3.5492 9.69252 3.50698C9.59504 3.46476 9.5065 3.40287 9.43195 3.32487L9.14752 3.02778C8.73758 2.59901 8.25057 2.25907 7.71448 2.02748C7.17838 1.7959 6.60376 1.67723 6.02362 1.6783Z" fill="#2F3235"/>
</svg>
