<svg width="24" height="17" viewBox="0 0 24 17" fill="none" xmlns="http://www.w3.org/2000/svg">
<path d="M22.6286 9.69H1.37143C0.514286 9.69 0 9.18 0 8.5C0 7.82 0.514285 7.31 1.2 7.31H22.6286C23.3143 7.31 23.8286 7.82 23.8286 8.5C23.8286 9.18 23.4857 9.69 22.6286 9.69ZM24 1.36C24 0.51 23.4857 0 22.8 0H1.37143C0.514286 0 0 0.68 0 1.36C0 2.04 0.514285 2.55 1.2 2.55H22.6286C23.4857 2.55 24 2.04 24 1.36ZM24 15.64C24 14.96 23.4857 14.45 22.8 14.45H1.37143C0.685715 14.45 0.171428 14.96 0.171428 15.64C-1.66042e-07 16.32 0.685715 17 1.37143 17H22.8C23.4857 17 24 16.49 24 15.64Z" fill="#2F3235"/>
</svg>
